<svg xmlns="http://www.w3.org/2000/svg" viewBox="0 0 24 24" fill="#08cef5"><path d="M23.643 4.937c-.835.37-1.73.616-2.676.726a4.675 4.675 0 002.042-2.573 9.293 9.293 0 01-2.975 1.136A4.646 4.646 0 0016.616 3c-2.573 0-4.655 2.082-4.655 4.655 0 .365.042.72.126 1.063-3.87-.194-7.31-2.048-9.605-4.87a4.646 4.646 0 00-.63 2.34c0 1.617.823 3.043 2.073 3.88a4.617 4.617 0 01-2.107-.582v.058c0 2.253 1.605 4.134 3.735 4.563a4.675 4.675 0 01-2.1.08c.592 1.84 2.308 3.18 4.34 3.22a9.33 9.33 0 01-5.775 1.99c-.373 0-.738-.022-1.1-.065a13.186 13.186 0 007.14 2.094c8.57 0 13.27-7.103 13.27-13.27 0-.202-.005-.404-.014-.605a9.427 9.427 0 002.308-2.4z"/></svg>