<svg xmlns="http://www.w3.org/2000/svg" viewBox="0 0 24 24" fill="#2f2e2e"><path d="M12 0c-6.627 0-12 5.373-12 12 0 6.627 5.373 12 12 12 6.627 0 12-5.373 12-12 0-6.627-5.373-12-12-12zm0 22.5c-5.775 0-10.5-4.725-10.5-10.5 0-5.775 4.725-10.5 10.5-10.5 5.775 0 10.5 4.725 10.5 10.5 0 5.775-4.725 10.5-10.5 10.5zm5.25-15h-1.5c-.414 0-.75.336-.75.75v1.5c0 .414.336.75.75.75h1.5c.414 0 .75-.336.75-.75v-1.5c0-.414-.336-.75-.75-.75zm-5.25 0h-1.5c-.414 0-.75.336-.75.75v1.5c0 .414.336.75.75.75h1.5c.414 0 .75-.336.75-.75v-1.5c0-.414-.336-.75-.75-.75zm-5.25 0h-1.5c-.414 0-.75.336-.75.75v1.5c0 .414.336.75.75.75h1.5c.414 0 .75-.336.75-.75v-1.5c0-.414-.336-.75-.75-.75zm10.5 10.5h-1.5c-.414 0-.75.336-.75.75v1.5c0 .414.336.75.75.75h1.5c.414 0 .75-.336.75-.75v-1.5c0-.414-.336-.75-.75-.75zm-5.25 0h-1.5c-.414 0-.75.336-.75.75v1.5c0 .414.336.75.75.75h1.5c.414 0 .75-.336.75-.75v-1.5c0-.414-.336-.75-.75-.75zm-5.25 0h-1.5c-.414 0-.75.336-.75.75v1.5c0 .414.336.75.75.75h1.5c.414 0 .75-.336.75-.75v-1.5c0-.414-.336-.75-.75-.75z"/></svg>