<svg xmlns="http://www.w3.org/2000/svg" viewBox="0 0 24 24" fill="#2f2e2e"><path d="M23.498 6.186c.014-.1.014-.2.014-.3 0-1.5-.012-3.1-.05-4.6-.03-1.3-.12-2.5-.26-3.7-.14-1.2-.35-2.3-.63-3.4-.3-1.1-.7-2.1-1.2-3-.5-.9-1.1-1.7-1.8-2.4-.7-.7-1.5-1.3-2.4-1.8-.9-.5-1.9-.9-3-.9-1.1 0-2.1.4-3 .9-.9.5-1.7 1.1-2.4 1.8-.7.7-1.3 1.5-1.8 2.4-.5.9-.9 1.9-1.2 3-.3 1.1-.5 2.3-.63 3.4-.14 1.2-.23 2.4-.26 3.7-.038 1.5-.05 3.1-.05 4.6 0 .1 0 .2.014.3.1 1.1.3 2.2.63 3.3.3 1.1.7 2.1 1.2 3 .5.9 1.1 1.7 1.8 2.4.7.7 1.5 1.3 2.4 1.8.9.5 1.9.9 3 .9 1.1 0 2.1-.4 3-.9.9-.5 1.7-1.1 2.4-1.8.7-.7 1.3-1.5 1.8-2.4.5-1.1.9-2.2 1.2-3 .3-1.1.5-2.2.63-3.3zm-12.498 9.814v-7.5l6.5 3.75-6.5 3.75z"/></svg>